<?xml version="1.0" encoding="UTF-8" standalone="no"?>
<svg class="avatar" width="82px" height="82px" viewBox="0 0 82 82" version="1.1" xmlns="http://www.w3.org/2000/svg" xmlns:xlink="http://www.w3.org/1999/xlink" xmlns:sketch="http://www.bohemiancoding.com/sketch/ns">
    <!-- Generator: Sketch 3.4 (15575) - http://www.bohemiancoding.com/sketch -->
    <title>avatar</title>
    <desc>Created with Sketch.</desc>
    <defs></defs>
    <g id="Page-1" stroke="none" stroke-width="1" fill="none" fill-rule="evenodd" sketch:type="MSPage">
        <g id="avatar" sketch:type="MSLayerGroup" transform="translate(1.000000, 1.000000)">
            <circle id="Oval-11" stroke="#CED5DD" stroke-width="2" fill="#FFFFFF" sketch:type="MSShapeGroup" cx="40" cy="40" r="40"></circle>
            <path d="M59.8433081,34.7435062 C59.7598782,34.143836 59.6674439,33.4981426 59.5652174,32.8024691 C57.7865613,20.698336 53.3399209,10.0703167 39.8466073,10.0703167 C26.3532936,10.0703167 21.6205534,20.698336 20.0643173,32.6433993 C19.9948325,33.1767382 19.9181211,33.9007867 19.8403798,34.7360031 C19.5565898,34.6301161 19.2591074,34.5738057 18.9525692,34.5738057 C16.9879199,34.5738057 15.3952569,36.886881 15.3952569,39.740204 C15.3952569,42.593527 16.9879199,44.9066023 18.9525692,44.9066023 C19.0736795,44.9066023 19.1933762,44.8978124 19.3113734,44.880648 C19.2961078,44.9385231 19.2805127,44.9954946 19.2645882,45.0515234 C19.590764,50.2482493 24.9540139,57.0107354 27.2529644,57.0107354 C29.9209486,57.0107354 28.4387352,53.1728395 31.6996047,53.1728395 L39.8466062,53.1728395 L47.7075099,53.1728395 C50.6719368,53.1728395 50.0790514,57.0107489 52.4505929,57.0107354 C54.7816241,57.0107221 59.9766712,50.0412059 60.1534732,44.8340369 C60.3477431,44.8817559 60.5473677,44.9066023 60.7509881,44.9066023 C62.7156374,44.9066023 64.3083004,42.593527 64.3083004,39.740204 C64.3083004,36.886881 62.7156374,34.5738057 60.7509881,34.5738057 C60.4372878,34.5738057 60.1330714,34.6327782 59.8433081,34.7435062 Z M61.9483952,32.8036719 C61.9483415,32.8032709 61.9482878,32.8028699 61.9482341,32.8024691 C60.0412772,18.5719215 54.229249,7.70853462 39.6978197,7.70853462 C25.1663904,7.70853462 19.3457954,18.5361641 17.4531429,32.8024691 C17.4521125,32.8102366 17.4510856,32.818043 17.4500622,32.8258882 C14.972079,33.1210706 13.0237154,36.170055 13.0237154,39.8878154 C13.0237154,43.4715086 14.8340918,46.43379 17.1841173,46.9071631 C17.6143849,58.0554892 31.5514638,72.3623188 39.9942624,72.3623188 C48.4370715,72.3623188 62.0979767,58.0554539 62.519645,46.9071218 C64.8695709,46.4336177 66.6798419,43.4714044 66.6798419,39.8878154 C66.6798419,36.0187412 64.5696531,32.8739896 61.9483952,32.8036719 Z M39.7035573,66.7530864 C40.9162774,66.7530864 42.3715415,66.2243835 42.3715415,65.5721954 C42.3715415,65.6129158 37.0355731,65.6129158 37.0355731,65.5721954 C37.0355731,66.2243835 38.4908372,66.7530864 39.7035573,66.7530864 Z M40,62.9151906 C44.4466403,62.9151906 49.7826087,60.9986424 49.7826087,58.6344605 C49.7826087,58.782072 30.2173913,58.7820719 30.2173913,58.6344605 C30.2173913,60.9986424 35.5533597,62.9151906 40,62.9151906 Z" id="Face" fill="#000000" sketch:type="MSShapeGroup"></path>
            <ellipse id="EyeLeft" fill="#000000" sketch:type="MSShapeGroup" cx="29.1798419" cy="39.0021471" rx="1.63043478" ry="2.36178207"></ellipse>
            <ellipse id="EyeRight" fill="#000000" sketch:type="MSShapeGroup" cx="50.2272727" cy="39.0021471" rx="1.63043478" ry="2.36178207"></ellipse>
            <path d="M62.6177482,37.9732872 C63.440596,37.5960051 64.0118577,36.7655824 64.0118577,35.7915996 C64.0118577,34.4668425 62.9363146,33.3929147 61.6178694,33.3929147 L44.2369122,33.3929147 C42.7192632,33.3929147 43.5573123,34.2785829 42.0750988,34.2785829 C41.7701618,34.2785829 39.1106719,34.2709972 37.6284585,34.2785829 C36.1462451,34.2861686 36.9636956,33.3929147 35.5009276,33.3929147 L17.8013069,33.3929147 C16.4724822,33.3929147 15.3952569,34.4576065 15.3952569,35.7915996 C15.3952569,36.8746211 16.1094969,37.7900018 17.0970053,38.088009 C17.0653918,38.2627314 17.0488828,38.4427902 17.0488828,38.626794 C17.0488828,38.626794 17.0488828,38.1690872 17.0488828,39.4589845 C17.0488828,40.7488817 17.0488828,44.9066023 28.6242639,44.9066023 C37.2231185,44.9066023 37.5538437,40.2691447 37.5538435,39.4932907 C37.5538437,38.682953 37.5538436,38.6223633 37.5538436,38.6223633 C37.5538436,38.2446788 37.4834973,37.8833461 37.3551508,37.5506352 L42.382689,37.5506352 C42.2543425,37.8833461 42.1839962,38.2446788 42.1839962,38.6223633 C42.1839962,38.6223633 42.1839961,38.682953 42.1839963,39.4932907 C42.1839961,40.2691447 42.5147213,44.9066023 51.1135759,44.9066023 C62.688957,44.9066023 62.688957,40.7488817 62.688957,39.4589845 C62.688957,38.1690872 62.688957,38.626794 62.688957,38.626794 C62.688957,38.40224 62.6643698,38.1835614 62.6177482,37.9732872 Z M22.6822023,35.6316872 C21.0322416,35.6316872 19.6946842,36.9721173 19.6946842,38.627311 C19.6946842,38.627311 19.6946842,38.9020806 19.6946842,39.5056565 C19.6946842,40.1092324 19.6946842,42.6678297 28.9549891,42.6678297 C34.291195,42.6678297 34.9080423,40.1453058 34.9080423,39.5311244 C34.9080423,38.916943 34.9080423,38.6255445 34.9080423,38.6255445 C34.9080423,36.9720828 33.5579582,35.6316872 31.9023723,35.6316872 L22.6822023,35.6316872 Z M57.0556375,35.6316872 C58.7055982,35.6316872 60.0431556,36.9721173 60.0431556,38.627311 C60.0431556,38.627311 60.0431556,38.9020806 60.0431556,39.5056565 C60.0431556,40.1092324 60.0431556,42.6678297 50.7828507,42.6678297 C45.4466448,42.6678297 44.8297975,40.1453058 44.8297975,39.5311244 C44.8297975,38.916943 44.8297975,38.6255445 44.8297975,38.6255445 C44.8297975,36.9720828 46.1798816,35.6316872 47.8354675,35.6316872 L57.0556375,35.6316872 Z" id="Glasses" fill="#3272D2" sketch:type="MSShapeGroup"></path>
        </g>
    </g>
</svg>